<svg width="19" height="19" viewBox="0 0 19 19" fill="none" xmlns="http://www.w3.org/2000/svg">
<g clip-path="url(#clip0_241_269)">
<path d="M9.5 0C12.0196 0 14.4359 1.00089 16.2175 2.78249C17.9991 4.56408 19 6.98044 19 9.5C19 12.0196 17.9991 14.4359 16.2175 16.2175C14.4359 17.9991 12.0196 19 9.5 19C6.98044 19 4.56408 17.9991 2.78249 16.2175C1.00089 14.4359 0 12.0196 0 9.5C0 6.98044 1.00089 4.56408 2.78249 2.78249C4.56408 1.00089 6.98044 0 9.5 0ZM1.78125 9.5C1.78125 11.5471 2.59447 13.5104 4.04202 14.958C5.48957 16.4055 7.45286 17.2188 9.5 17.2188C11.5471 17.2188 13.5104 16.4055 14.958 14.958C16.4055 13.5104 17.2188 11.5471 17.2188 9.5C17.2188 7.45286 16.4055 5.48957 14.958 4.04202C13.5104 2.59447 11.5471 1.78125 9.5 1.78125C7.45286 1.78125 5.48957 2.59447 4.04202 4.04202C2.59447 5.48957 1.78125 7.45286 1.78125 9.5ZM7.57506 6.20706L12.6386 9.24587C12.6823 9.2723 12.7185 9.30958 12.7436 9.3541C12.7688 9.39863 12.782 9.44888 12.782 9.5C12.782 9.55112 12.7688 9.60137 12.7436 9.6459C12.7185 9.69042 12.6823 9.7277 12.6386 9.75412L7.57506 12.7929C7.53004 12.8201 7.47861 12.8347 7.42605 12.8355C7.37349 12.8362 7.32168 12.823 7.27591 12.7971C7.23014 12.7713 7.19205 12.7338 7.16553 12.6884C7.13902 12.643 7.12503 12.5914 7.125 12.5388V6.46237C7.12482 6.40971 7.13865 6.35794 7.16508 6.31239C7.19151 6.26683 7.22958 6.22913 7.27539 6.20314C7.3212 6.17716 7.3731 6.16382 7.42576 6.16451C7.47842 6.1652 7.52995 6.17989 7.57506 6.20706Z" fill="#244472"/>
</g>
<defs>
<clipPath id="clip0_241_269">
<rect width="19" height="19" fill="white"/>
</clipPath>
</defs>
</svg>
