<svg width="19" height="19" viewBox="0 0 19 19" fill="none" xmlns="http://www.w3.org/2000/svg">
<path d="M9.5 0C4.2465 0 0 4.2465 0 9.5C0 14.7535 4.2465 19 9.5 19C14.7535 19 19 14.7535 19 9.5C19 4.2465 14.7535 0 9.5 0ZM12.445 4.8165C12.578 4.8165 12.711 4.864 12.825 4.9685L14.0315 6.175C14.25 6.384 14.25 6.7165 14.0315 6.916L13.0815 7.866L11.134 5.9185L12.084 4.9685C12.179 4.864 12.312 4.8165 12.445 4.8165ZM10.5735 6.4695L12.5305 8.4265L6.7735 14.1835H4.8165V12.2265L10.5735 6.4695Z" fill="#244472"/>
</svg>
