<svg width="19" height="19" viewBox="0 0 19 19" fill="none" xmlns="http://www.w3.org/2000/svg">
<mask id="path-1-inside-1_15_3592" fill="white">
<path fill-rule="evenodd" clip-rule="evenodd" d="M9.5 19C14.7467 19 19 14.7467 19 9.5C19 4.25329 14.7467 0 9.5 0C4.25329 0 0 4.25329 0 9.5C0 14.7467 4.25329 19 9.5 19ZM5.5 6C5.22386 6 5 6.22386 5 6.5C5 6.77614 5.22386 7 5.5 7H13.5C13.7761 7 14 6.77614 14 6.5C14 6.22386 13.7761 6 13.5 6H5.5ZM5 9.5C5 9.22386 5.22386 9 5.5 9H13.5C13.7761 9 14 9.22386 14 9.5C14 9.77614 13.7761 10 13.5 10H5.5C5.22386 10 5 9.77614 5 9.5ZM5.5 12C5.22386 12 5 12.2239 5 12.5C5 12.7761 5.22386 13 5.5 13H13.5C13.7761 13 14 12.7761 14 12.5C14 12.2239 13.7761 12 13.5 12H5.5Z"/>
</mask>
<path fill-rule="evenodd" clip-rule="evenodd" d="M9.5 19C14.7467 19 19 14.7467 19 9.5C19 4.25329 14.7467 0 9.5 0C4.25329 0 0 4.25329 0 9.5C0 14.7467 4.25329 19 9.5 19ZM5.5 6C5.22386 6 5 6.22386 5 6.5C5 6.77614 5.22386 7 5.5 7H13.5C13.7761 7 14 6.77614 14 6.5C14 6.22386 13.7761 6 13.5 6H5.5ZM5 9.5C5 9.22386 5.22386 9 5.5 9H13.5C13.7761 9 14 9.22386 14 9.5C14 9.77614 13.7761 10 13.5 10H5.5C5.22386 10 5 9.77614 5 9.5ZM5.5 12C5.22386 12 5 12.2239 5 12.5C5 12.7761 5.22386 13 5.5 13H13.5C13.7761 13 14 12.7761 14 12.5C14 12.2239 13.7761 12 13.5 12H5.5Z" fill="#244472"/>
<path d="M17 9.5C17 13.6421 13.6421 17 9.5 17V21C15.8513 21 21 15.8513 21 9.5H17ZM9.5 2C13.6421 2 17 5.35786 17 9.5H21C21 3.14873 15.8513 -2 9.5 -2V2ZM2 9.5C2 5.35786 5.35786 2 9.5 2V-2C3.14873 -2 -2 3.14873 -2 9.5H2ZM9.5 17C5.35786 17 2 13.6421 2 9.5H-2C-2 15.8513 3.14873 21 9.5 21V17ZM7 6.5C7 7.32843 6.32843 8 5.5 8V4C4.11929 4 3 5.11929 3 6.5H7ZM5.5 5C6.32843 5 7 5.67157 7 6.5H3C3 7.88071 4.11929 9 5.5 9V5ZM13.5 5H5.5V9H13.5V5ZM12 6.5C12 5.67157 12.6716 5 13.5 5V9C14.8807 9 16 7.88071 16 6.5H12ZM13.5 8C12.6716 8 12 7.32843 12 6.5H16C16 5.11929 14.8807 4 13.5 4V8ZM5.5 8H13.5V4H5.5V8ZM5.5 7C4.11929 7 3 8.11929 3 9.5H7C7 10.3284 6.32843 11 5.5 11V7ZM13.5 7H5.5V11H13.5V7ZM16 9.5C16 8.11929 14.8807 7 13.5 7V11C12.6716 11 12 10.3284 12 9.5H16ZM13.5 12C14.8807 12 16 10.8807 16 9.5H12C12 8.67157 12.6716 8 13.5 8V12ZM5.5 12H13.5V8H5.5V12ZM3 9.5C3 10.8807 4.11929 12 5.5 12V8C6.32843 8 7 8.67157 7 9.5H3ZM7 12.5C7 13.3284 6.32843 14 5.5 14V10C4.11929 10 3 11.1193 3 12.5H7ZM5.5 11C6.32843 11 7 11.6716 7 12.5H3C3 13.8807 4.11929 15 5.5 15V11ZM13.5 11H5.5V15H13.5V11ZM12 12.5C12 11.6716 12.6716 11 13.5 11V15C14.8807 15 16 13.8807 16 12.5H12ZM13.5 14C12.6716 14 12 13.3284 12 12.5H16C16 11.1193 14.8807 10 13.5 10V14ZM5.5 14H13.5V10H5.5V14Z" fill="#244472" mask="url(#path-1-inside-1_15_3592)"/>
</svg>
