<svg width="30" height="30" viewBox="0 0 30 30" fill="none" xmlns="http://www.w3.org/2000/svg">
<g clip-path="url(#clip0_54_24)">
<path fill-rule="evenodd" clip-rule="evenodd" d="M3.05143 0.578571C3.20219 0.39757 3.3909 0.251922 3.60419 0.151941C3.81748 0.0519594 4.05015 8.83354e-05 4.28571 6.559e-09H15C15.2354 -2.12579e-05 15.4679 0.0516624 15.6811 0.151397C15.8943 0.251133 16.083 0.396484 16.2339 0.577177C16.3847 0.75787 16.494 0.969494 16.5541 1.19709C16.6142 1.42468 16.6235 1.66269 16.5814 1.89429L16.53 2.175C17.2952 2.2853 17.9951 2.66774 18.5012 3.25221C19.0074 3.83667 19.2859 4.58398 19.2857 5.35714V6.96429H15.5357C13.8308 6.96429 12.1956 7.64158 10.99 8.84717C9.78444 10.0528 9.10714 11.6879 9.10714 13.3929V23.5714H3.21429C2.3618 23.5714 1.54424 23.2328 0.941442 22.63C0.338647 22.0272 8.45138e-08 21.2096 8.45138e-08 20.3571V5.35714C-0.000177126 4.58398 0.278335 3.83667 0.784475 3.25221C1.29062 2.66774 1.99046 2.2853 2.75571 2.175L2.70429 1.89643C2.66173 1.66441 2.67077 1.42587 2.73077 1.19775C2.79076 0.969618 2.90024 0.757493 3.05143 0.576429V0.578571ZM6.21429 3.21429L6.46071 4.57286C6.52798 4.94326 6.72313 5.2783 7.01214 5.51953C7.30116 5.76077 7.66568 5.89289 8.04214 5.89286H11.2479C11.6243 5.89289 11.9888 5.76077 12.2779 5.51953C12.5669 5.2783 12.762 4.94326 12.8293 4.57286L13.0757 3.21429H6.21429Z" fill="#415D85"/>
<path fill-rule="evenodd" clip-rule="evenodd" d="M15.5357 9.64282C14.5411 9.64282 13.5873 10.0379 12.8841 10.7412C12.1808 11.4444 11.7857 12.3983 11.7857 13.3928V26.25C11.7857 28.32 13.4657 30 15.5357 30H26.25C27.2446 30 28.1984 29.6049 28.9016 28.9016C29.6049 28.1984 30 27.2445 30 26.25V13.3928C30 12.3983 29.6049 11.4444 28.9016 10.7412C28.1984 10.0379 27.2446 9.64282 26.25 9.64282H15.5357ZM16.875 17.1428C16.875 16.4035 17.475 15.8035 18.2143 15.8035H23.5714C23.9266 15.8035 24.2673 15.9446 24.5184 16.1958C24.7696 16.447 24.9107 16.7876 24.9107 17.1428C24.9107 17.498 24.7696 17.8387 24.5184 18.0898C24.2673 18.341 23.9266 18.4821 23.5714 18.4821H18.2143C17.8591 18.4821 17.5184 18.341 17.2673 18.0898C17.0161 17.8387 16.875 17.498 16.875 17.1428ZM18.2143 21.1607C17.8591 21.1607 17.5184 21.3018 17.2673 21.5529C17.0161 21.8041 16.875 22.1448 16.875 22.5C16.875 22.8552 17.0161 23.1958 17.2673 23.447C17.5184 23.6981 17.8591 23.8393 18.2143 23.8393H23.5714C23.9266 23.8393 24.2673 23.6981 24.5184 23.447C24.7696 23.1958 24.9107 22.8552 24.9107 22.5C24.9107 22.1448 24.7696 21.8041 24.5184 21.5529C24.2673 21.3018 23.9266 21.1607 23.5714 21.1607H18.2143Z" fill="#415D85"/>
</g>
<defs>
<clipPath id="clip0_54_24">
<rect width="30" height="30" fill="white"/>
</clipPath>
</defs>
</svg>
